<svg width="18" height="16" viewBox="0 0 18 16" fill="none" xmlns="http://www.w3.org/2000/svg">
<path fill-rule="evenodd" clip-rule="evenodd" d="M8.86997 1.29675C6.45373 1.29675 4.49497 3.25551 4.49497 5.67175C4.49497 8.088 6.45373 10.0468 8.86997 10.0468C11.2862 10.0468 13.245 8.088 13.245 5.67175C13.245 3.25551 11.2862 1.29675 8.86997 1.29675ZM3.24497 5.67175C3.24497 2.56515 5.76337 0.0467529 8.86997 0.0467529C11.9766 0.0467529 14.495 2.56515 14.495 5.67175C14.495 8.77836 11.9766 11.2968 8.86997 11.2968C5.76337 11.2968 3.24497 8.77836 3.24497 5.67175Z" fill="#6F7285"/>
<path fill-rule="evenodd" clip-rule="evenodd" d="M8.86997 11.2968C7.44361 11.2968 6.04239 11.6715 4.80715 12.3848C3.57192 13.098 2.54621 14.1239 1.83315 15.3592C1.66059 15.6582 1.27835 15.7606 0.979402 15.588C0.680454 15.4155 0.577996 15.0333 0.750558 14.7343C1.57333 13.3089 2.75683 12.1252 4.1821 11.3023C5.60737 10.4793 7.22417 10.0468 8.86997 10.0468C10.5158 10.0468 12.1326 10.4793 13.5579 11.3023C14.9831 12.1252 16.1666 13.3089 16.9894 14.7343C17.162 15.0333 17.0595 15.4155 16.7606 15.588C16.4616 15.7606 16.0794 15.6582 15.9068 15.3592C15.1937 14.1239 14.168 13.098 12.9328 12.3848C11.6976 11.6715 10.2963 11.2968 8.86997 11.2968Z" fill="#6F7285"/>
</svg>
