<svg width="24" height="25" viewBox="0 0 24 25" fill="none" xmlns="http://www.w3.org/2000/svg">
<path d="M12 23.0002C6.07 23.0002 1.25 18.1802 1.25 12.2502C1.25 6.32024 6.07 1.50024 12 1.50024C17.93 1.50024 22.75 6.32024 22.75 12.2502C22.75 18.1802 17.93 23.0002 12 23.0002ZM12 3.00024C6.9 3.00024 2.75 7.15024 2.75 12.2502C2.75 17.3502 6.9 21.5002 12 21.5002C17.1 21.5002 21.25 17.3502 21.25 12.2502C21.25 7.15024 17.1 3.00024 12 3.00024Z" fill="#292D32"/>
<path d="M9.16999 15.8302C8.97999 15.8302 8.78999 15.7602 8.63999 15.6102C8.34999 15.3202 8.34999 14.8402 8.63999 14.5502L14.3 8.89023C14.59 8.60023 15.07 8.60023 15.36 8.89023C15.65 9.18023 15.65 9.66023 15.36 9.95023L9.69998 15.6102C9.55998 15.7602 9.35999 15.8302 9.16999 15.8302Z" fill="#292D32"/>
<path d="M14.83 15.8302C14.64 15.8302 14.45 15.7602 14.3 15.6102L8.63999 9.95023C8.34999 9.66023 8.34999 9.18023 8.63999 8.89023C8.92999 8.60023 9.40998 8.60023 9.69998 8.89023L15.36 14.5502C15.65 14.8402 15.65 15.3202 15.36 15.6102C15.21 15.7602 15.02 15.8302 14.83 15.8302Z" fill="#292D32"/>
</svg>
