<svg width="24" height="25" viewBox="0 0 24 25" fill="none" xmlns="http://www.w3.org/2000/svg">
<path d="M5.41001 22.0003C4.29001 22.0003 3.58001 21.6203 3.13001 21.1703C2.25001 20.2903 1.63001 18.4203 3.61001 14.4503L4.48001 12.7203C4.59001 12.4903 4.59001 12.0103 4.48001 11.7803L3.61001 10.0503C1.62001 6.08027 2.25001 4.20027 3.13001 3.33027C4.00001 2.45027 5.88001 1.82027 9.84001 3.81027L18.4 8.09027C20.53 9.15027 21.7 10.6303 21.7 12.2503C21.7 13.8703 20.53 15.3503 18.41 16.4103L9.85001 20.6903C7.91001 21.6603 6.47001 22.0003 5.41001 22.0003ZM5.41001 4.00027C4.87001 4.00027 4.45001 4.13027 4.19001 4.39027C3.46001 5.11027 3.75001 6.98027 4.95001 9.37027L5.82001 11.1103C6.14001 11.7603 6.14001 12.7403 5.82001 13.3903L4.95001 15.1203C3.75001 17.5203 3.46001 19.3803 4.19001 20.1003C4.91001 20.8303 6.78001 20.5403 9.18001 19.3403L17.74 15.0603C19.31 14.2803 20.2 13.2503 20.2 12.2403C20.2 11.2303 19.3 10.2003 17.73 9.42027L9.17001 5.15027C7.65001 4.39027 6.34001 4.00027 5.41001 4.00027Z" fill="#292D32"/>
<path d="M10.84 13.0002H5.44C5.03 13.0002 4.69 12.6602 4.69 12.2502C4.69 11.8402 5.03 11.5002 5.44 11.5002H10.84C11.25 11.5002 11.59 11.8402 11.59 12.2502C11.59 12.6602 11.25 13.0002 10.84 13.0002Z" fill="#292D32"/>
</svg>
