<svg width="49" height="24" viewBox="0 0 49 24" fill="none" xmlns="http://www.w3.org/2000/svg">
<path d="M42.4011 23.0044C42.3079 23.5488 41.869 24 41.3168 24H7.68324C7.13095 24 6.69214 23.5488 6.59894 23.0044C6.16522 20.4711 4.10411 18.4734 1.49625 18.0625C0.950698 17.9765 0.5 17.5371 0.5 16.9848V7.01521C0.5 6.46292 0.950478 6.02329 1.49593 5.93669C2.76664 5.73495 3.95006 5.15048 4.87221 4.25339C5.78781 3.36268 6.38661 2.22138 6.59805 0.995189C6.69191 0.450937 7.13095 0 7.68324 0H41.3168C41.869 0 42.3079 0.451209 42.4011 0.995573C42.8348 3.52886 44.8959 5.5266 47.5037 5.93754C48.0493 6.0235 48.5 6.46292 48.5 7.01521V16.9848C48.5 17.5371 48.0493 17.9765 47.5037 18.0625C44.8959 18.4734 42.8348 20.4711 42.4011 23.0044Z" fill="#FEB534"/>
<path d="M15.5 8.5359C18.1667 10.0755 19.5 10.8453 19.5 12C19.5 13.1547 18.1667 13.9245 15.5 15.4641C12.8333 17.0037 11.5 17.7735 10.5 17.1962C9.5 16.6188 9.5 15.0792 9.5 12C9.5 8.9208 9.5 7.3812 10.5 6.80385C11.5 6.2265 12.8333 6.9963 15.5 8.5359Z" fill="#F6F6F6"/>
<ellipse cx="0.69967" cy="0.703887" rx="0.69967" ry="0.703887" transform="matrix(0.00772566 -0.99997 0.999971 0.00763336 23.5537 10.9995)" fill="#F6F6F6"/>
<ellipse cx="0.699671" cy="0.703887" rx="0.699671" ry="0.703887" transform="matrix(0.00772565 -0.99997 0.999971 0.00763337 23.5811 7.3999)" fill="#F6F6F6"/>
<ellipse cx="0.69967" cy="0.703889" rx="0.69967" ry="0.703889" transform="matrix(0.00772568 -0.99997 0.999971 0.00763334 23.5205 14.4979)" fill="#F6F6F6"/>
<ellipse cx="0.69967" cy="0.703888" rx="0.69967" ry="0.703888" transform="matrix(0.00824068 -0.999966 0.999974 0.00715629 23.5 17.9895)" fill="#F6F6F6"/>
<path d="M35.2143 16.3281C35.2143 15.9592 35.2143 15.5714 35.2143 15.1647C35.2143 14.758 35.2024 14.3442 35.1786 13.9234C35.1786 13.5025 35.1524 13.0792 35.1 12.6536C35.0476 12.228 35.0071 11.8166 34.9786 11.4193C34.8722 10.5757 34.6929 9.74264 34.4429 8.92946C34.2348 8.25147 33.9395 7.60296 33.5643 7L32.5 7.70936C32.8364 8.24725 33.0938 8.83008 33.2643 9.4402C33.4619 10.138 33.6075 10.8493 33.7 11.5683C33.8048 12.3202 33.8714 13.1052 33.9 13.9234C33.9286 14.7415 33.9429 15.5431 33.9429 16.3281H35.2143Z" fill="white"/>
</svg>
