<svg width="49" height="24" viewBox="0 0 49 24" fill="none" xmlns="http://www.w3.org/2000/svg">
<path d="M42.4011 23.0044C42.3079 23.5488 41.869 24 41.3168 24H7.68324C7.13095 24 6.69214 23.5488 6.59894 23.0044C6.16522 20.4711 4.10411 18.4734 1.49625 18.0625C0.950698 17.9765 0.5 17.5371 0.5 16.9848V7.01521C0.5 6.46292 0.950478 6.02329 1.49593 5.93669C2.76664 5.73495 3.95006 5.15048 4.87221 4.25339C5.78781 3.36268 6.38661 2.22138 6.59805 0.995189C6.69191 0.450937 7.13095 0 7.68324 0H41.3168C41.869 0 42.3079 0.451209 42.4011 0.995573C42.8348 3.52886 44.8959 5.5266 47.5037 5.93754C48.0493 6.0235 48.5 6.46292 48.5 7.01521V16.9848C48.5 17.5371 48.0493 17.9765 47.5037 18.0625C44.8959 18.4734 42.8348 20.4711 42.4011 23.0044Z" fill="#F4682A"/>
<path d="M15.5 8.5359C18.1667 10.0755 19.5 10.8453 19.5 12C19.5 13.1547 18.1667 13.9245 15.5 15.4641C12.8333 17.0037 11.5 17.7735 10.5 17.1962C9.5 16.6188 9.5 15.0792 9.5 12C9.5 8.9208 9.5 7.3812 10.5 6.80385C11.5 6.2265 12.8333 6.9963 15.5 8.5359Z" fill="#F6F6F6"/>
<ellipse cx="0.69967" cy="0.703887" rx="0.69967" ry="0.703887" transform="matrix(0.00772566 -0.99997 0.999971 0.00763336 23.5537 10.9995)" fill="#F6F6F6"/>
<ellipse cx="0.699671" cy="0.703887" rx="0.699671" ry="0.703887" transform="matrix(0.00772565 -0.99997 0.999971 0.00763337 23.5811 7.3999)" fill="#F6F6F6"/>
<ellipse cx="0.69967" cy="0.703889" rx="0.69967" ry="0.703889" transform="matrix(0.00772568 -0.99997 0.999971 0.00763334 23.5205 14.4979)" fill="#F6F6F6"/>
<ellipse cx="0.69967" cy="0.703888" rx="0.69967" ry="0.703888" transform="matrix(0.00824068 -0.999966 0.999974 0.00715629 23.5 17.9895)" fill="#F6F6F6"/>
<path d="M33.7357 16.6473L33.8071 16.4629C33.85 16.3399 33.9167 16.1791 34.0071 15.9805C34.0976 15.7819 34.2095 15.5454 34.3429 15.2711C34.481 15.0063 34.6405 14.7297 34.8214 14.4412C35.0024 14.1527 35.2095 13.8571 35.4429 13.5545C35.6777 13.2494 35.9356 12.9625 36.2143 12.6962C36.5023 12.4226 36.8129 12.1734 37.1429 11.9513C37.4838 11.7227 37.8506 11.5346 38.2357 11.3909L38.5143 11.3271L38.7286 11.2491L38.3571 10.0432L38.1857 10.0999L38.0143 10.1637L37.8714 10.2063L37.4286 10.334C37.2571 10.3813 37.0738 10.4238 36.8786 10.4617C36.6833 10.4995 36.4809 10.5302 36.2714 10.5539C36.0693 10.5685 35.8664 10.5685 35.6643 10.5539C35.5148 10.5546 35.3659 10.5355 35.2214 10.4971C35.0978 10.4652 34.978 10.42 34.8643 10.3624C34.7679 10.3135 34.6789 10.2515 34.6 10.1779C34.5376 10.1208 34.4888 10.0505 34.4571 9.97222C34.426 9.86613 34.4092 9.7564 34.4071 9.64591C34.4077 9.45255 34.4568 9.26239 34.55 9.09261C34.6496 8.91911 34.7832 8.76716 34.9429 8.64571C35.1043 8.53594 35.2797 8.4477 35.4643 8.38325C35.6741 8.30377 35.8968 8.26291 36.1214 8.26266C36.3173 8.26516 36.5118 8.2938 36.7 8.34778C36.9222 8.41178 37.1339 8.50735 37.3286 8.63153L37.9786 7.53911C37.699 7.368 37.3991 7.23218 37.0857 7.13478C36.7817 7.0467 36.4667 7.00133 36.15 7H35.9357C35.5954 7.01787 35.2603 7.08971 34.9429 7.21281C34.6542 7.32072 34.3824 7.4688 34.1357 7.65261C33.8149 7.89859 33.5517 8.21081 33.3643 8.56768C33.1824 8.90609 33.0867 9.28359 33.0857 9.66719C33.0818 9.90687 33.1131 10.1458 33.1786 10.3766C33.2357 10.5745 33.3303 10.7599 33.4571 10.9228C33.59 11.0931 33.7491 11.2415 33.9286 11.3626C34.121 11.4933 34.3299 11.5982 34.55 11.6747C34.7806 11.7576 35.0204 11.8124 35.2643 11.8378C34.9937 12.095 34.7408 12.3699 34.5071 12.6607C34.2595 12.9681 34.0214 13.2873 33.7929 13.6183C33.5643 13.9494 33.3833 14.252 33.25 14.5263C33.0929 14.8195 32.9619 15.082 32.8571 15.3137C32.7524 15.5454 32.669 15.7417 32.6071 15.9025C32.5452 16.0585 32.5095 16.1578 32.5 16.2004V16.2571V16.2926L33.7357 16.6473Z" fill="white"/>
</svg>
