<svg xmlns="http://www.w3.org/2000/svg" width="55" height="30"  viewBox="0 0 78.16 43.8"><defs><style>.cls-1{fill:#f4462f;stroke-linecap:round;stroke-linejoin:round;}.cls-1,.cls-3,.cls-5,.cls-6{stroke:#233539;}.cls-1,.cls-6{stroke-width:2px;}.cls-2{fill:#ff8976;opacity:0.3;}.cls-3,.cls-6{fill:#f6f6f6;}.cls-3,.cls-5,.cls-6{stroke-miterlimit:10;}.cls-3{stroke-width:1.73px;}.cls-4{fill:#233539;}.cls-5{fill:none;stroke-width:1.29px;}</style></defs><title>Asset 47</title><g id="Layer_2" data-name="Layer 2"><g id="Layer_1-2" data-name="Layer 1"><path class="cls-1" d="M61.19,42.8H9.9A8.9,8.9,0,0,0,1,33.9V16.19a8.9,8.9,0,0,0,8.9-8.9H61.19a8.9,8.9,0,0,0,8.9,8.9V33.9A8.9,8.9,0,0,0,61.19,42.8Z"/><path class="cls-2" d="M63.89,15s-11,19-34,20S7.8,37.19,7.8,37.19L1.16,33.28.89,16s5.22,1.67,7.61-3.17S9.89,8,9.89,8h51Z"/><path class="cls-3" d="M33,24,23.6,18.17a1.23,1.23,0,0,0-1.88,1V30.88a1.23,1.23,0,0,0,1.88,1L33,26.1A1.23,1.23,0,0,0,33,24Z"/><circle class="cls-4" cx="42.8" cy="22.43" r="1.05" transform="translate(20.05 65.06) rotate(-89.56)"/><circle class="cls-4" cx="42.85" cy="17.03" r="1.05" transform="translate(25.49 59.75) rotate(-89.56)"/><circle class="cls-4" cx="42.76" cy="27.67" r="1.05" transform="translate(14.76 70.23) rotate(-89.56)"/><circle class="cls-4" cx="42.72" cy="32.92" r="1.05" transform="translate(9.48 75.39) rotate(-89.56)"/><path class="cls-5" d="M61.19,42.8H9.9A8.9,8.9,0,0,0,1,33.9V16.19a8.9,8.9,0,0,0,8.9-8.9H61.19a8.9,8.9,0,0,0,8.9,8.9V33.9A8.9,8.9,0,0,0,61.19,42.8Z"/><circle class="cls-6" cx="63.66" cy="14.5" r="13.5"/><path class="cls-4" d="M69.26,8q0,.23.08.59a6.57,6.57,0,0,1,0,.75q0,.3,0,.61a4.39,4.39,0,0,1-.09.61,3.55,3.55,0,0,1-.18.56,1.61,1.61,0,0,1-.28.46,1.19,1.19,0,0,1-.47.35,1.71,1.71,0,0,1-.65.11,2.15,2.15,0,0,1-.85-.15,1.84,1.84,0,0,1-.61-.43,2.91,2.91,0,0,1-.47-.66q-.2-.38-.41-.86l-.28-.62-.24-.54c-.08-.17-.16-.33-.24-.49s-.17-.32-.27-.47l-1.5,1q.27.47.48.91c.14.3.28.6.4.92a12.26,12.26,0,0,1,.63,2.24q.23,1.22.35,2.55t.14,2.75q0,1.42,0,2.84h1.79q0-.78,0-1.65t-.05-1.76q0-.89-.11-1.79T66.3,14l0-.25,0-.25a3.35,3.35,0,0,0,.69.19,4.69,4.69,0,0,0,.77.06,3.45,3.45,0,0,0,1.41-.28,2.89,2.89,0,0,0,1.08-.83h0a5,5,0,0,0,1-3.18c0-.24,0-.47,0-.69s0-.41,0-.58,0-.3-.05-.41,0-.17,0-.18ZM60.61,21q0-.78,0-1.64t-.05-1.75q0-.89-.11-1.79t-.17-1.74a20.92,20.92,0,0,0-.75-3.51,11.62,11.62,0,0,0-1.23-2.72l-1.49,1a9.38,9.38,0,0,1,1.07,2.44,20.82,20.82,0,0,1,.61,3q.22,1.59.28,3.32T58.83,21Z"/></g></g></svg>