<svg width="49" height="24" viewBox="0 0 49 24" fill="none" xmlns="http://www.w3.org/2000/svg">
<path d="M42.4011 23.0044C42.3079 23.5488 41.869 24 41.3168 24H7.68324C7.13095 24 6.69214 23.5488 6.59894 23.0044C6.16522 20.4711 4.10411 18.4734 1.49625 18.0625C0.950698 17.9765 0.5 17.5371 0.5 16.9848V7.01521C0.5 6.46292 0.950478 6.02329 1.49593 5.93669C2.76664 5.73495 3.95006 5.15048 4.87221 4.25339C5.78781 3.36268 6.38661 2.22138 6.59805 0.995189C6.69191 0.450937 7.13095 0 7.68324 0H41.3168C41.869 0 42.3079 0.451209 42.4011 0.995573C42.8348 3.52886 44.8959 5.5266 47.5037 5.93754C48.0493 6.0235 48.5 6.46292 48.5 7.01521V16.9848C48.5 17.5371 48.0493 17.9765 47.5037 18.0625C44.8959 18.4734 42.8348 20.4711 42.4011 23.0044Z" fill="#F78926"/>
<path d="M15.5 8.5359C18.1667 10.0755 19.5 10.8453 19.5 12C19.5 13.1547 18.1667 13.9245 15.5 15.4641C12.8333 17.0037 11.5 17.7735 10.5 17.1962C9.5 16.6188 9.5 15.0792 9.5 12C9.5 8.9208 9.5 7.3812 10.5 6.80385C11.5 6.2265 12.8333 6.9963 15.5 8.5359Z" fill="#F6F6F6"/>
<ellipse cx="0.69967" cy="0.703887" rx="0.69967" ry="0.703887" transform="matrix(0.00772566 -0.99997 0.999971 0.00763336 23.5537 10.9995)" fill="#F6F6F6"/>
<ellipse cx="0.699671" cy="0.703887" rx="0.699671" ry="0.703887" transform="matrix(0.00772565 -0.99997 0.999971 0.00763337 23.5811 7.3999)" fill="#F6F6F6"/>
<ellipse cx="0.69967" cy="0.703889" rx="0.69967" ry="0.703889" transform="matrix(0.00772568 -0.99997 0.999971 0.00763334 23.5205 14.4979)" fill="#F6F6F6"/>
<ellipse cx="0.69967" cy="0.703888" rx="0.69967" ry="0.703888" transform="matrix(0.00824068 -0.999966 0.999974 0.00715629 23.5 17.9895)" fill="#F6F6F6"/>
<path d="M38.2786 7.2199C38.3452 7.58404 38.3952 7.89852 38.4286 8.16335C38.4564 8.3988 38.4707 8.63564 38.4714 8.87271C38.4811 9.01679 38.4811 9.16134 38.4714 9.30542C38.4587 9.40816 38.4396 9.51003 38.4143 9.61044C38.3959 9.67943 38.3695 9.74607 38.3357 9.80906L38.2643 9.92256L38.1571 10.0077C38.0809 10.0412 37.9975 10.0558 37.9143 10.0502H37.8143L37.6786 9.97222C37.6169 9.91645 37.564 9.8519 37.5214 9.78069C37.455 9.66815 37.4 9.54934 37.3571 9.42601C37.2814 9.1751 37.2241 8.91905 37.1857 8.6599C37.1381 8.37143 37.1024 8.09714 37.0786 7.83704C37.0786 7.69517 37.0786 7.57458 37.0786 7.46818C37.0786 7.36177 37.0786 7.29084 37.0786 7.24118V7.07803L35.8071 7.23409C35.8071 7.23409 35.8071 7.32631 35.8071 7.43271C35.8071 7.53911 35.8071 7.6597 35.8071 7.78739C35.8071 7.91507 35.8071 8.03567 35.8071 8.15626C35.8071 8.27685 35.8071 8.35488 35.8071 8.40453C35.7984 8.70681 35.7528 9.00693 35.6714 9.29833C35.6215 9.51325 35.5239 9.71439 35.3857 9.88709C35.325 9.96639 35.2499 10.0337 35.1643 10.0857C35.0642 10.1333 34.9537 10.1553 34.8429 10.1496C34.6826 10.1551 34.5228 10.1311 34.3714 10.0786C34.2432 10.027 34.1302 9.94403 34.0429 9.83744C33.9352 9.70452 33.8441 9.55925 33.7714 9.40473C33.6857 9.22503 33.5833 9.00512 33.4643 8.74502L33.1643 8.09951L33.0357 7.83704L32.9071 7.57458L32.7643 7.30502L32.6571 7.12059L31.5 7.82995C31.5968 7.98103 31.685 8.13733 31.7643 8.29813C31.8429 8.45419 31.9143 8.61734 31.9857 8.78049V8.83015L32.0214 8.92236C32.2007 9.38563 32.351 9.85943 32.4714 10.3411C32.6 10.8424 32.7048 11.3673 32.7857 11.9159C32.8667 12.4644 32.931 13.0343 32.9786 13.6254C33.0214 14.2166 33.0429 14.8171 33.0429 15.4272C33.0429 15.5974 33.0429 15.7771 33.0429 15.9663C33.0429 16.1555 33.0429 16.3375 33.0429 16.5125H34.3214C34.3214 16.1342 34.3214 15.7417 34.3214 15.335C34.3214 14.9283 34.3214 14.5168 34.3214 14.1007C34.3214 13.6845 34.2976 13.266 34.25 12.8451C34.2024 12.4242 34.1429 11.9963 34.0714 11.5612V11.4122V11.2562C34.1943 11.3007 34.321 11.3339 34.45 11.3555C34.5903 11.3662 34.7312 11.3662 34.8714 11.3555C35.1442 11.3708 35.4172 11.3272 35.6714 11.2278C35.9246 11.0965 36.1501 10.9184 36.3357 10.7029L36.4643 10.5113C36.5616 10.653 36.6768 10.7818 36.8071 10.8944C37.0103 11.0735 37.2562 11.198 37.5214 11.2562C37.6354 11.2673 37.7503 11.2673 37.8643 11.2562C38.1107 11.2538 38.3539 11.2007 38.5786 11.1001C38.8021 10.9984 38.9999 10.8481 39.1571 10.6603C39.541 10.1241 39.7253 9.47218 39.6786 8.81596C39.6931 8.54896 39.6931 8.28138 39.6786 8.01438C39.6405 7.707 39.5881 7.36887 39.5214 7L38.2786 7.2199Z" fill="white"/>
</svg>
